<?xml version="1.0" encoding="utf-8"?>
<!-- Generator: Adobe Illustrator 25.2.0, SVG Export Plug-In . SVG Version: 6.00 Build 0)  -->
<svg version="1.1" id="Layer_1" xmlns="http://www.w3.org/2000/svg" xmlns:xlink="http://www.w3.org/1999/xlink" x="0px" y="0px"
	 viewBox="0 0 464.4 124" style="enable-background:new 0 0 464.4 124;" xml:space="preserve">
<style type="text/css">
	.st0{fill:#083800;}
</style>
<g>
	<path class="st0" d="M115.8,60.6c-4.3,2.5-8.6,4.2-13.9,6.4c-0.3,0.1-0.8,0.3-1.1,0.3c-0.3,0.1-0.6,0-0.6-0.3c0-0.3,1-1.7,1.1-2.5
		c0.3-1.2,1.1-3.3,1.1-6.5c0-5.5-2.5-11-8.8-11c-1.8,0-4,0.4-6.7,1.6c-22.4,9.2-35.5,20.1-55.4,28.7c-2.2,0.9-3.8,1.5-4.9,1.5
		c-1,0-1.5-0.4-1.5-1.3c0-0.4,0.1-1.1,0.6-2c5.7-11.6,20.7-27,40.6-37.8c17.1-9.2,31.9-11.9,33.5-11.9c2.5,0,3.3,1.7,3.9,3.4
		c0.8,2.4,1.8,4,6.1,3.7c3.8-0.3,5.3-1.9,5.3-3.8c0-3.1-4.2-7.2-8.6-8.4c-2.6-0.7-5.7-1-8.9-1c-10.9,0-24.4,3.8-37.7,9.6
		C31.1,41.5,4,62.4,4,76c0,3.1,1.5,6,4.9,8.1c6.3,4,8.8,8.1,13.8,8c19.5-0.4,32.7-20.6,65-39.9c1.5-0.9,2.8-1.3,3.8-1.3
		c1.7,0,2.6,1.2,2.6,3.6c0,2.8-1.3,7-4,12.2c-1.4,2.6-2.1,4.8-4.7,6.5C71.5,82,47.4,93.8,47.4,106.6c0,2.9,1.3,6,4.3,9
		c0.6,0.6,1.3,0.8,2.2,0.8c8.8,0,34.1-22.1,43.8-44.3c0.3-0.6,1.1-1,1.7-1.3c6.3-3.9,12.4-6.2,16.6-9c0.4-0.2,0.6-0.6,0.6-0.8
		C116.6,60.6,116.3,60.3,115.8,60.6z M68.7,98.1c-4,3.3-13.6,11.3-15.2,7.3c-1.8-4.6,5.6-11.2,11.2-15.6C70.5,85.3,83,79,83.4,79.1
		C83.4,79.1,75.2,92.6,68.7,98.1z"/>
	<g>
		<path class="st0" d="M162.2,71.6c-3.6,3.2-14,12.6-19.4,16.4c-1.4,1-2.8,1.5-4.3,1.5c-3.2,0-6.5-2.6-6.5-7.5
			c0-3.3,1.4-7.5,5.1-12.9c0.4-0.6,0.6-1,0.6-1.3c0-0.2-0.1-0.4-0.5-0.4c-0.3,0-0.5,0-0.9,0.2c-8.5,4.2-16.6,16.4-25.2,22.8
			c-1.3,1-2.7,1.3-3.9,1.3c-4.6,0-8.7-4.8-8.7-9.4c0-1,0.3-2,0.6-2.9c7.2-15.7,28.7-28.5,36.3-31.7c2.7-1.1,3.9-1.3,5.6-1.3
			c3.5,0,5.9,2.2,9,8.2c0.3,0.4,0.3,0.8,0.3,1c0,0.6-0.4,0.8-0.8,0.8c-0.5,0-1.1-0.3-1.6-0.8c-0.6-0.7-1.5-1-2.8-1
			c-7.8,0-27.2,12.7-32.1,21.7c-0.3,0.6-0.5,1.1-0.5,1.7c0,0.8,0.4,1.5,1.3,1.5c0.5,0,1.4-0.3,2.7-1.2c7.5-5.4,20.1-15.7,24.4-17.1
			c0.9-0.3,1.9-0.3,2.7-0.3c3.7-0.1,5.9,3,5.9,5.8c0,0.6-0.1,1.1-0.3,1.6c-1.4,3.7-8,11.9-9.7,16.3c-0.1,0.4-0.3,0.9-0.3,1.2
			c0,0.8,0.4,1.3,1,1.3c0.4,0,0.8-0.2,1.3-0.6c4.6-3.1,11.1-8.9,15.9-13.1c0.9-0.8,2.8-2.7,3.3-2.7c0.3,0,0.6,0.6,0.6,0.9
			C161.2,71.7,163.3,70.7,162.2,71.6z"/>
		<path class="st0" d="M215.9,64.6c-9.2,7.1-24.2,20.2-28.9,23.8c-3,2.2-5.7,3.3-7.5,3.3c-1.1,0-2-0.3-3.5-1.6
			c-3-2.5-4.2-3.9-4.2-6.3c0-1.5,0.5-2.9,1.3-4.6c1.3-2.9,4-5.8,8.9-11.1c2.8-3,5.7-6.4,5.7-7.6c0-0.4-0.3-0.9-1.5-0.9
			c-2.9,0-6.2,1.7-7.5,2.2c-1.6,0.8-3.5,1.8-6.1,2.2c-1.4,0.2-2,0.7-2.9,1.3c-2.7,2-7.1,6.1-9.9,8.1c-0.9,0.8-2.3,1.3-2.8,1.3
			c-0.4,0,0.3-1,0.3-1.2c0-0.4,0.6-0.9,1.2-1.5c2.8-2.7,9.6-8.9,9.2-9.6c-1.6-2.7-2.5-5.1-2.5-7.1c0-3.9,3-7,10.6-11.2
			c0.4-0.2,1-0.3,1.6-0.3c0.6,0,1.4,0.2,1.6,0.6c3,2.9,4.7,5.2,4.7,6.9c0,2.1-1.9,4-5.8,6.9c-0.5,0.3-0.8,0.6-0.8,0.8
			c0,0.2,0.3,0.4,0.6,0.4c0.3,0,0.6-0.1,1-0.2c3.8-1.2,6.5-1.8,8.7-1.8c3.2,0,5.3,1.2,8.2,3.5c0.8,0.7,1.1,1.7,1.1,2.8
			c0,2.4-1.6,6-3.2,8.4c-2.2,3.6-4.6,6.6-5.6,8.2c-0.3,0.4-0.6,1-0.6,1.6c0,0.1,0,0.2,0.3,0.2s0.8-0.2,1.6-0.8
			c5.9-3.9,18.6-13.3,24.9-17.9c0.6-0.4,1-0.7,1.4-0.7c0.5,0,0.9,0.2,0.9,0.6C216.8,63.7,216.5,64.2,215.9,64.6z"/>
		<path class="st0" d="M276,33.5c-0.9,0-1.4,0.1-2.3,0.7c-18.2,14.7-32.8,47.1-32.8,52.1c0,1,0.3,1.1,0.6,1.1c0.3,0,0.8-0.1,1.4-0.3
			c3.2-1,13.3-9.9,18.9-15.3c1-1,1.9-1.6,2.5-1.6c0.3,0,0.5,0,0.5,0.6c0,0.4-0.3,1.1-1.1,2.1c-5.3,5.7-16.7,15.5-21.3,17.8
			c-0.5,0.2-1.4,0.4-2.4,0.4c-3.2,0-7.8-1.7-7.8-7.3c0-6.2,3.7-12.1,6.6-18.2c0.3-0.6,0.8-1.3,0.5-1.3c-0.4,0-0.9,0.3-1.5,1.2
			c-4.1,5.5-18.1,22.1-23,24.8c-0.5,0.3-1.3,0.4-2,0.4c-4.2,0-11.3-4.5-10.3-9c2.7-12.6,19.1-30.3,25.7-33.2c1-0.4,2-0.6,3.2-0.6
			c3.9,0,8.4,2.4,9.9,5.6c0.1,0.2,0.1,0.4,0.1,0.6c0,0.2-0.3,0.4-0.5,0.4c-0.4,0-0.9-0.2-1.3-0.3c-0.5-0.2-1-0.3-1.5-0.3
			c-5.6,0-14.8,10.1-21.4,22.6c-0.8,1.3-1.3,2.7-1.3,3.4c0,0.7,0.3,0.8,0.5,0.8c0.9,0,1.8-0.4,5.3-3.8
			c15.4-14.9,23.4-22.6,25.1-25.1c8.5-12.1,17.2-25.4,21-25.4c4.4,0,10,3.5,10.1,5.7C277.4,33.4,277.1,33.5,276,33.5z"/>
		<path class="st0" d="M308.8,67.9c-8.2,10.1-26.1,23.9-38.5,23.9c-3.9,0-7-1.2-9.5-4.7c-1.4-1.9-1.9-4-1.9-6.2
			c0-4.2,1.9-8.7,4.4-12.6c4.8-7.4,14.8-18.8,21.9-18.8c1,0,1.9,0.2,2.8,0.7c4.9,2.9,7.3,5.6,9.6,8.7c0.5,0.7,0.8,1.5,0.8,2.2
			c0,5.1-11.3,10.5-17.3,12.3c-0.9,0.2-1.4,0.3-1.9,0.3c-0.9,0-1.1-0.3-1.1-0.7c0-0.7,0.9-1.5,1.8-2c7.5-4.5,12.4-8.1,12.9-11.9
			c0.1-1.1-0.4-1.3-1-1.3c-0.9,0-1.9,0.6-3,1c-6.2,2.6-19.4,13-22,26.7c-0.4,2.2,0.9,2.8,2.5,2.8c7.7,0,30.8-14.2,38.7-21.6
			c0.3-0.2,0.5-0.3,0.8-0.3c0.3,0,0.5,0.2,0.5,0.6C309.2,67.2,309,67.6,308.8,67.9z"/>
		<path class="st0" d="M320,49.4c0-0.4-0.1-0.7-0.6-0.8c-0.5-0.1-0.8-0.4-0.8-0.8c0-0.4,0.4-0.9,1-0.8c4.2,1,6.8,3.3,6.8,7
			c0,3.8-2.3,8.3-7.7,14.3c-0.9,1-1.8,2.1-1.8,2.5c0,0.1,0.1,0.2,0.3,0.2c0.5,0,2-0.9,3.3-2c12.5-10.6,18.6-14.8,23.3-14.8
			c2.4,0,4.3,1.3,5.9,3.9c0.8,1.2,1.1,2.2,1.1,3.8c0,4.3-3.2,9-5.1,11.8c-3.7,5.6-6.2,9.7-6.2,12.6c0,0.7,0.3,1.1,1,1.1
			c1.9,0,6.8-3.1,16.5-11.6c2.3-1.9,3.5-2.7,4.2-2.7c0.3,0,0.4,0.1,0.4,0.3c0,0.4-0.8,1.7-2.5,3.5c-7.8,8-15.1,14.3-20.5,14.3
			c-1.4,0-2.4-0.1-3.3-0.6c-3.5-1.6-5.8-4.4-5.8-8.9c0-3,1.3-6.9,4.3-11.2c3-4.4,5.1-8.3,5.1-9.8c0-0.6-0.4-0.9-0.9-0.9
			c-4.9,0-29.4,22.7-32.5,29.1c-0.3,0.6-0.9,1.3-1.8,1.3c-0.8,0-4.8-1.8-4.8-6.2C298.9,73.2,320,53.5,320,49.4z"/>
		<path class="st0" d="M408.1,67.9c-8.2,10.1-26.1,23.9-38.5,23.9c-3.9,0-7-1.2-9.5-4.7c-1.4-1.9-1.9-4-1.9-6.2
			c0-4.2,1.9-8.7,4.4-12.6c4.8-7.4,14.8-18.8,21.9-18.8c1,0,1.9,0.2,2.8,0.7c4.9,2.9,7.3,5.6,9.6,8.7c0.5,0.7,0.8,1.5,0.8,2.2
			c0,5.1-11.3,10.5-17.3,12.3c-0.9,0.2-1.4,0.3-1.9,0.3c-0.9,0-1.1-0.3-1.1-0.7c0-0.7,0.9-1.5,1.8-2c7.5-4.5,12.4-8.1,12.9-11.9
			c0.1-1.1-0.4-1.3-1-1.3c-0.9,0-1.9,0.6-3,1c-6.2,2.6-19.4,13-22,26.7c-0.4,2.2,0.9,2.8,2.5,2.8c7.7,0,30.8-14.2,38.7-21.6
			c0.3-0.2,0.5-0.3,0.8-0.3c0.3,0,0.5,0.2,0.5,0.6C408.5,67.2,408.4,67.6,408.1,67.9z"/>
		<path class="st0" d="M458.1,64.6c-9.2,7.1-24.2,20.2-28.9,23.8c-3,2.2-5.7,3.3-7.5,3.3c-1.1,0-2-0.3-3.5-1.6
			c-3-2.5-4.2-3.9-4.2-6.3c0-1.5,0.5-2.9,1.3-4.6c1.3-2.9,4-5.8,8.9-11.1c2.8-3,5.7-6.4,5.7-7.6c0-0.4-0.3-0.9-1.5-0.9
			c-2.9,0-6.2,1.7-7.5,2.2c-1.6,0.8-3.5,1.8-6.1,2.2c-1.4,0.2-2,0.7-2.9,1.3c-2.7,2-7.1,6.1-9.9,8.1c-0.9,0.8-2.3,1.3-2.8,1.3
			c-0.4,0-0.6-0.2-0.6-0.4c0-0.4,0.4-0.9,1-1.5c4-3.1,10.8-9.7,10.4-10.3c-1.6-2.7-2.5-5.1-2.5-7.1c0-3.9,3-7,10.6-11.2
			c0.4-0.2,1-0.3,1.6-0.3s1.4,0.2,1.6,0.6c3,2.9,4.7,5.2,4.7,6.9c0,2.1-1.9,4-5.8,6.9c-0.5,0.3-0.8,0.6-0.8,0.8
			c0,0.2,0.3,0.4,0.6,0.4c0.3,0,0.6-0.1,1-0.2c3.8-1.2,6.5-1.8,8.7-1.8c3.2,0,5.3,1.2,8.2,3.5c0.8,0.7,1.1,1.7,1.1,2.8
			c0,2.4-1.6,6-3.2,8.4c-2.2,3.6-4.6,6.6-5.6,8.2c-0.3,0.4-0.6,1-0.6,1.6c0,0.1,0,0.2,0.3,0.2c0.3,0,0.8-0.2,1.6-0.8
			c5.9-3.9,18.6-13.3,24.9-17.9c0.6-0.4,1-0.7,1.4-0.7c0.5,0,0.9,0.2,0.9,0.6C459,63.7,458.7,64.2,458.1,64.6z"/>
	</g>
</g>
<g>
	<path class="st0" d="M124.7,8.7h4.3l0.1,10.4l0,1.9l0,4.1c0,0.7,0,1.3,0,1.9c0,0.6,0,1.1,0,1.6l0,1.4c0.1-0.3,0.2-0.5,0.2-0.8
		c0.1-0.2,0.1-0.4,0.2-0.5l1.1-3.3l1.5-4.3c0.1-0.4,0.3-0.7,0.4-1.1c0.1-0.3,0.2-0.6,0.3-0.9l3.9-10.4h4l-11.3,28.2H126L124.7,8.7z"
		/>
	<path class="st0" d="M151,27.6c-1.1,6.4-4,9.6-8.5,9.6s-6.2-3.3-5.1-9.8c1.2-6.5,4-9.8,8.5-9.8c1.2,0,2.1,0.2,2.9,0.6
		c0.8,0.4,1.4,1,1.8,1.8c0.4,0.8,0.6,1.9,0.7,3.1C151.4,24.4,151.3,25.9,151,27.6z M146.9,27.5c0.4-2.5,0.6-4.2,0.4-5.2
		c-0.2-1-0.8-1.5-1.7-1.5c-0.9,0-1.7,0.5-2.3,1.5c-0.5,1-1,2.7-1.5,5.1c-0.4,2.4-0.5,4.1-0.3,5.1c0.2,1,0.8,1.5,1.8,1.5
		c0.9,0,1.7-0.5,2.2-1.5C146,31.6,146.5,29.9,146.9,27.5z"/>
	<path class="st0" d="M158.1,5.9h4l-5.5,31.1h-4L158.1,5.9z"/>
	<path class="st0" d="M164.5,18h4l-2.2,12.6c-0.2,1.2-0.1,2,0.1,2.5c0.3,0.5,0.8,0.7,1.7,0.7c0.9,0,1.6-0.2,2-0.7
		c0.4-0.5,0.8-1.3,1-2.4l0.3-1.5l2-11.3h4l-2,11.3c-0.5,2.6-1,4.4-1.6,5.3c-1.2,1.7-3.3,2.6-6.3,2.6c-2.3,0-3.9-0.5-4.7-1.5
		c-0.8-1-1-2.8-0.5-5.2L164.5,18z"/>
	<path class="st0" d="M181.4,18h4l-0.4,2.2c1.4-1.7,3.1-2.5,4.9-2.5c1.7,0,2.9,0.6,3.4,1.8c0.3,0.7,0.3,2-0.1,4l-2.4,13.5h-4
		l2.2-12.7c0.2-1.3,0.2-2.2,0-2.7c-0.3-0.5-0.8-0.8-1.6-0.8c-0.5,0-0.9,0.1-1.2,0.2c-0.3,0.1-0.6,0.4-0.9,0.7
		c-0.2,0.3-0.5,0.7-0.6,1.2c-0.2,0.5-0.3,1.1-0.5,1.8l-2.2,12.2h-4L181.4,18z"/>
	<path class="st0" d="M200.1,12.7h4l-0.9,5.3h2.2l-0.5,2.8h-2.2l-2.8,16.1h-4l2.8-16.1h-2.2L197,18h2.2L200.1,12.7z"/>
	<path class="st0" d="M214.7,30.6h3.7c-1.1,4.4-3.5,6.7-7.4,6.7c-1.2,0-2.1-0.2-2.9-0.6c-0.8-0.4-1.3-1-1.7-1.8
		c-0.4-0.8-0.6-1.8-0.7-3c0-1.2,0.1-2.7,0.4-4.4c0.6-3.3,1.6-5.8,2.9-7.4c1.3-1.6,3.1-2.4,5.4-2.4c4.3,0,5.9,3.4,4.7,10.1l-0.1,0.4
		h-9.1c-0.7,4-0.1,6,1.7,6C213.3,34.2,214.3,33,214.7,30.6z M215.4,25.6c0.2-2,0.2-3.3-0.1-3.9c-0.2-0.7-0.8-1-1.6-1
		c-0.8,0-1.5,0.3-1.9,1c-0.5,0.6-0.9,1.9-1.5,3.9H215.4z"/>
	<path class="st0" d="M230.9,30.6h3.7c-1.1,4.4-3.5,6.7-7.4,6.7c-1.2,0-2.1-0.2-2.9-0.6c-0.8-0.4-1.3-1-1.7-1.8
		c-0.4-0.8-0.6-1.8-0.7-3c0-1.2,0.1-2.7,0.4-4.4c0.6-3.3,1.6-5.8,2.9-7.4c1.3-1.6,3.1-2.4,5.4-2.4c4.3,0,5.9,3.4,4.7,10.1l-0.1,0.4
		h-9.1c-0.7,4-0.1,6,1.7,6C229.4,34.2,230.5,33,230.9,30.6z M231.6,25.6c0.2-2,0.2-3.3-0.1-3.9c-0.2-0.7-0.8-1-1.6-1
		c-0.8,0-1.5,0.3-1.9,1c-0.5,0.6-0.9,1.9-1.5,3.9H231.6z"/>
	<path class="st0" d="M240.5,18h4l-0.4,2.4c0.9-1,1.7-1.7,2.4-2.1c0.7-0.4,1.7-0.6,2.8-0.7l-0.6,3.7c-0.3,0-0.5-0.1-0.7-0.1
		c-1.4,0-2.5,0.3-3.2,1c-0.7,0.6-1.2,1.7-1.5,3.3l-2,11.5h-4L240.5,18z"/>
</g>
</svg>
